<svg xmlns="http://www.w3.org/2000/svg" width="720" height="960" viewBox="0 0 720 960" role="img" aria-labelledby="title desc">
  <title id="title">热力学与统计物理习题解答</title>
  <desc id="desc">RongYu's Notes, Thermodynamics and Statistical Physics exercises and solutions.</desc>
  <defs>
    <linearGradient id="paper" x1="0" y1="0" x2="1" y2="1">
      <stop offset="0" stop-color="#f3f6f7"/>
      <stop offset="1" stop-color="#e8eef2"/>
    </linearGradient>
    <clipPath id="field"><rect x="78" y="212" width="564" height="326" rx="2"/></clipPath>
    <marker id="arrow" markerWidth="10" markerHeight="10" refX="8" refY="4" orient="auto">
      <path d="M0,0 L9,4 L0,8 Z" fill="#173b3b"/>
    </marker>
  </defs>

  <rect width="720" height="960" fill="url(#paper)"/>
  <rect x="20" y="20" width="680" height="920" fill="none" stroke="#173b3b" stroke-width="2"/>
  <rect x="31" y="31" width="658" height="898" fill="none" stroke="#b89455" stroke-width="1" opacity=".8"/>

  <text x="76" y="87" fill="#173b3b" font-family="Georgia, 'Times New Roman', serif" font-size="23" letter-spacing="2">RONGYU'S NOTES</text>
  <text x="644" y="87" text-anchor="end" fill="#b89455" font-family="Georgia, 'Times New Roman', serif" font-size="17" letter-spacing="1">AUX</text>
  <line x1="76" y1="112" x2="644" y2="112" stroke="#173b3b" stroke-width="2"/>
  <text x="76" y="148" fill="#6f879d" font-family="Georgia, 'Times New Roman', serif" font-size="18" letter-spacing="2">PHYSICS / AUX</text>

  <g clip-path="url(#field)" fill="none" stroke-linecap="round">
    <path d="M104 514 L104 246 M104 514 L626 514" stroke="#173b3b" stroke-width="2"/>
    <path d="M104 470 C176 450 226 444 280 450 C346 458 358 479 416 472 C485 463 516 407 626 356" stroke="#173b3b" stroke-width="3"/>
    <path d="M104 424 C174 404 230 400 286 410 C350 421 371 441 432 422 C495 402 529 351 626 300" stroke="#6f879d" stroke-width="2.2"/>
    <path d="M104 378 C172 359 232 355 288 368 C354 383 377 400 440 374 C500 350 535 300 626 250" stroke="#b89455" stroke-width="2.2"/>
    <path d="M104 332 C177 313 236 310 293 325 C354 341 384 355 447 326 C510 297 547 252 626 214" stroke="#6f879d" stroke-width="2"/>
    <path d="M104 286 C177 267 240 266 298 281 C360 298 392 307 456 279 C518 251 558 220 626 191" stroke="#173b3b" stroke-width="2"/>
    <path d="M104 486 C212 486 279 476 346 442 C421 404 483 344 553 272" stroke="#b89455" stroke-width="1.5" stroke-dasharray="6 8"/>
    <path d="M472 480 L566 390" stroke="#173b3b" stroke-width="3" marker-end="url(#arrow)"/>
    <circle cx="472" cy="480" r="7" fill="#f3f6f7" stroke="#b89455" stroke-width="3"/>
    <circle cx="566" cy="390" r="6" fill="#173b3b"/>
  </g>
  <text x="615" y="535" fill="#173b3b" font-family="Georgia, 'Times New Roman', serif" font-size="20">V</text>
  <text x="82" y="248" fill="#173b3b" font-family="Georgia, 'Times New Roman', serif" font-size="20">P</text>
  <text x="574" y="379" fill="#b89455" font-family="Georgia, 'Times New Roman', serif" font-size="18">T</text>

  <line x1="76" y1="626" x2="644" y2="626" stroke="#173b3b" stroke-width="2"/>
  <text x="76" y="700" fill="#173b3b" font-family="'Noto Serif CJK SC', 'Noto Serif SC', 'Songti SC', serif" font-size="48" font-weight="600">热力学与统计物理</text>
  <text x="76" y="762" fill="#173b3b" font-family="'Noto Serif CJK SC', 'Noto Serif SC', 'Songti SC', serif" font-size="48" font-weight="600">习题解答</text>
  <text x="76" y="826" fill="#6f879d" font-family="Georgia, 'Times New Roman', serif" font-size="18" letter-spacing=".5">Thermodynamics and Statistical Physics: Exercises and Solutions</text>
  <text x="76" y="890" fill="#173b3b" font-family="Georgia, 'Times New Roman', serif" font-size="17" letter-spacing="1">Aux_STD</text>
  <circle cx="622" cy="888" r="13" fill="#b89455"/>
</svg>
